# ProBuilder 5.1.1
# https://unity3d.com/unity/features/worldbuilding/probuilder
# 26/01/2025 13:55:23

mtllib ./Model_CageGrateFull.mtl
o Model_CageGrateFull

g Grid
v -9.878315 1.892 1.358982
v -9.878315 6.892 1.358982
v -9.878315 6.892 1.458981
v -9.878315 1.892 1.458981
v -4.77957 6.892 1.358974
v -4.77957 6.892 1.458973
v -4.77957 1.892 1.358974
v -4.77957 1.892 1.458973

vt 0 0
vt 0 1
vt 1 1
vt 1 0

vn -1 0 0
vn 0 1 0
vn 1 0 0
vn 0 -1 0
vn 1.496328E-06 0 1
vn -1.496328E-06 0 -1

usemtl MReja
f 4/4/1 3/3/1 2/2/1 1/1/1
f 3/4/2 6/3/2 5/2/2 2/1/2
f 6/4/3 8/3/3 7/2/3 5/1/3
f 8/4/4 4/3/4 1/2/4 7/1/4
f 8/4/5 6/3/5 3/2/5 4/1/5
f 1/4/6 2/3/6 5/2/6 7/1/6

