# ProBuilder 5.1.1
# https://unity3d.com/unity/features/worldbuilding/probuilder
# 26/01/2025 11:42:07

mtllib ./Model_CageFloorCorner.mtl
o Model_CageFloorCorner

g Cube (3)
v 1.855954 -1.274678 -0.9626617
v -0.1440454 -1.274678 -0.9626617
v 1.855954 -0.2746782 -1.363905
v -0.2781897 -0.2746782 -1.363905
v -0.4484224 -1.274678 -1.538893
v -0.5113506 -0.2746782 -1.538893
v -0.5833216 -1.274678 -1.670362
v 1.855954 -1.274678 -1.670362
v -0.8551874 -0.2746782 -1.953926
v 1.855954 -0.2746782 -1.94634
v 1.855954 -1.274678 -1.538893
v 1.855954 -0.2746782 -1.538893
v 1.855954 0.04357171 -1.363905
v -0.2781897 0.04357171 -1.363905
v 1.855954 0.04357171 -1.597482
v -0.5113506 0.04357171 -1.597482
v 1.855954 -1.774678 -1.44634
v -0.3528166 -1.774678 -1.44634
v 1.855954 -1.774678 -0.9626617
v 0.1243896 -1.774678 -0.9626618
v -0.5589456 -0.2746782 -2.214101
v 1.855954 -0.2746782 -2.214101
v -0.5589456 0.04357171 -2.214101
v 1.855954 0.04357171 -2.214101
v -0.8551874 0.04357171 -1.953926
v 1.855954 0.04357171 -1.94634
v 0.1316825 -1.274678 -1.245954
v 0.1316823 -1.274678 0.7540454
v -0.2695607 -0.2746782 -1.359704
v -0.2695609 -0.2746782 0.7540454
v -0.4445487 -1.274678 0.7540454
v -0.4445487 -0.2746782 0.7540454
v -0.5760174 -1.274678 0.7540453
v -0.5760173 -1.274678 -1.666564
v -0.8519955 -0.2746782 0.7540455
v -0.8519953 -0.2746782 -1.95264
v -0.4445485 -1.274678 -1.535325
v -0.4445485 -0.2746782 -1.601453
v -0.2695607 0.04357171 -1.359704
v -0.2695609 0.04357171 0.7540454
v -0.5031375 0.04357171 -1.601453
v -0.5031376 0.04357171 0.7540453
v -0.3519953 -1.774678 -1.446453
v -0.3519955 -1.774678 0.7540456
v 0.1316825 -1.774678 -0.9776804
v 0.1316823 -1.774678 0.7540454
v -1.119757 -0.2746782 0.7540452
v -1.119757 -0.2746782 -1.713725
v -1.119757 0.04357171 0.7540452
v -1.119757 0.04357171 -1.713725
v -0.8519955 0.04357171 0.7540453
v -0.8519953 0.04357171 -1.959768

vt 1.855954 -0.8245203
vt -0.1440454 -0.8245203
vt 1.855954 0.252975
vt -0.2781897 0.252975
vt -0.9184863 -1.249556
vt -1.570167 -1.249556
vt -1.335929 -0.2471924
vt -1.599558 -0.2557326
vt 0.5833218 -0.7706398
vt -1.855954 -0.7706398
vt 0.8551875 0.2687872
vt -1.855954 0.2667177
vt 1.538893 -1.274678
vt 0.9626617 -1.274678
vt 1.538893 -0.2746782
vt 1.363905 -0.2746782
vt -1.855954 -1.363905
vt 0.2781897 -1.363905
vt -1.855954 -1.597482
vt 0.5113506 -1.597482
vt 1.855954 -1.44634
vt -0.3528166 -1.44634
vt 1.855954 -0.9626617
vt 0.1243896 -0.9626618
vt 1.855954 -0.2746782
vt -0.2781897 -0.2746782
vt 1.855954 0.04357171
vt -0.2781897 0.04357171
vt 1.597482 0.04357171
vt 1.363905 0.04357171
vt -1.041192 -0.2746782
vt -1.332713 -0.2746782
vt -1.041192 0.04357171
vt -1.367882 0.04357171
vt 0.5589456 -0.2746782
vt -1.855954 -0.2746782
vt 0.5589456 0.04357171
vt -1.855954 0.04357171
vt -1.855954 -0.9732855
vt 0.4484224 -0.9732855
vt -1.855954 -1.481779
vt 0.3528166 -1.481779
vt 0.9626617 -1.774678
vt 1.44634 -1.774678
vt -1.570167 -1.296884
vt -0.9184863 -1.296884
vt -1.443675 -1.798587
vt -0.7931098 -1.814729
vt -0.1440454 -1.274678
vt 1.855954 -1.274678
vt 0.1243896 -1.774678
vt 1.855954 -1.774678
vt -0.4484224 -1.538893
vt 1.855954 -1.538893
vt -0.5833216 -1.670362
vt 1.855954 -1.670362
vt -1.511272 -0.302816
vt -1.471125 -1.303989
vt -2.05023 -0.302816
vt -1.658426 -1.303021
vt 1.670362 -1.274678
vt 1.94634 -0.2746782
vt -1.504752 0.1371705
vt -1.462585 -0.1836684
vt -2.000006 0.1371705
vt -2.000006 -0.1785114
vt 1.94634 0.04357171
vt -1.855954 -1.94634
vt 0.8551874 -1.953926
vt -0.8551874 -1.953926
vt 1.855954 -1.94634
vt -0.5589456 -2.214101
vt 1.855954 -2.214101
vt -0.6468162 0.04357171
vt -0.6468162 -0.2746782
vt 2.214101 -0.2746782
vt 2.214101 0.04357171
vt -1.855954 -2.214101
vt 0.5589456 -2.214101
vt 1.969705 0.252975
vt -0.1440454 0.252975
vt -0.9626618 -1.274678
vt -1.538893 -1.274678
vt -1.363905 -0.2746782
vt -1.538893 -0.2746782
vt 0.1440454 -0.7843726
vt -2.276564 -0.7843726
vt 0.1440456 0.2530105
vt -2.56264 0.2530105
vt 2.337984 -1.200101
vt 1.693176 -1.200101
vt 2.367661 -0.1983566
vt 2.102794 -0.2064685
vt -1.969704 -1.363905
vt 0.1440455 -1.363905
vt -2.211453 -1.597481
vt 0.1440454 -1.597482
vt 2.056453 -1.446339
vt -0.1440457 -1.44634
vt 1.587681 -0.9626618
vt -0.1440455 -0.9626619
vt 1.969705 -0.2746782
vt -0.1440454 -0.2746782
vt 1.969705 0.04357171
vt -0.1440454 0.04357171
vt 2.693734 -0.2790641
vt 2.3953 -0.2790641
vt 2.728088 0.04270523
vt 2.3953 0.03570493
vt -1.363905 0.04357171
vt -1.597482 0.04357171
vt 0.1440453 -0.2746782
vt -2.323725 -0.2746782
vt 0.1440453 0.04357171
vt -2.323725 0.04357171
vt -2.145325 -0.9732856
vt 0.1440455 -0.9732856
vt -2.056453 -1.481779
vt 0.1440456 -1.481779
vt 1.693176 -0.6190774
vt 2.337984 -0.6190774
vt 1.572783 -1.173583
vt 2.215392 -1.086309
vt -1.44634 -1.774678
vt -0.9626618 -1.774678
vt -0.1440454 -1.774678
vt 1.58768 -1.774678
vt -0.1440454 -1.538893
vt 2.145325 -1.538893
vt -0.1440452 -1.670362
vt 2.276564 -1.670361
vt -1.94634 -0.2746782
vt -1.670362 -1.274678
vt 2.60476 -1.253132
vt 2.651479 -0.2520369
vt 2.790523 -1.253132
vt 3.187948 -0.2538749
vt -1.94634 0.04357172
vt 2.609461 -0.352716
vt 2.65384 -0.03217556
vt 3.147369 -0.3527161
vt 3.152023 -0.03738464
vt -2.569768 -1.946339
vt 0.1440455 -1.94634
vt -0.1440458 -1.94634
vt 2.56264 -1.94634
vt -0.1440454 -2.214101
vt 2.323725 -2.214101
vt -2.214101 0.0435716
vt -2.214101 -0.2746783
vt -0.253857 -0.2210343
vt -0.2586028 0.09726011
vt 0.1049977 -0.2210343
vt 0.1049977 0.09717122
vt -2.323725 -2.214101
vt 0.1440454 -2.214101

vn 0 0.3723851 0.9280783
vn -0.8821382 0.06863093 0.4659635
vn -0.7409837 0.01544242 0.6326004
vn -0.5998292 -0.03774609 0.7992373
vn 9.403406E-08 -0.272808 -0.9620686
vn 0.001348689 -0.26942 -0.9630145
vn 0.002697285 -0.266032 -0.9639605
vn 1 0 0
vn 0 1 0
vn 0 -1 0
vn -5.585813E-08 0 1
vn -0.600257 0 0.7998072
vn -0.6510412 0.06448711 0.7501916
vn -0.7018254 0.1289742 0.7005761
vn 0 0 -1
vn 0 -0.1820142 -0.9832959
vn -0.8812208 -0.0823366 0.4654789
vn -0.7730842 -0.2196636 0.5607648
vn -0.6649476 -0.3569905 0.6560507
vn -0.7691624 -0.04840196 0.6372177
vn -0.7335218 -0.01753738 0.6766536
vn -0.6978812 0.0133272 0.7160896
vn -0.7139126 0.1267809 0.6886621
vn -0.7419888 0.06339044 0.6633137
vn -0.7700651 0 0.6379654
vn -0.6598884 0 -0.7513637
vn 0.9280783 0.3723851 8.297668E-08
vn -0.9639639 -0.2660329 -7.120942E-08
vn 0.4479882 -0.05899232 -0.8920911
vn 0.616148 0.09556407 -0.7299033
vn 0.7843078 0.2501205 -0.5677156
vn 0.8011956 0.147498 -0.5799397
vn 0.7601762 0.073749 -0.6373938
vn 0.7191568 0 -0.6948479
vn -1 0 -4.830648E-08
vn -0.9832959 -0.1820143 -7.680148E-08
vn 0.4046575 -0.4323534 -0.8058057
vn 0.5503063 -0.2155814 -0.761945
vn 0.6959551 0.001190541 -0.7180843
vn 0.7057164 -0.04674931 -0.7069504
vn 0.6790783 -0.04161911 -0.7319558
vn 0.6524403 -0.0364889 -0.7569612
vn 0.6482098 0.1193337 -0.7520529
vn 0.6823106 0.05185544 -0.7247779
vn 0.7164115 -0.01562284 -0.697503
vn -0.6656777 -0.01671026 -0.7460523
vn -0.6711453 -0.00835513 -0.7411956
vn -0.676613 0 -0.7363388

usemtl M_Color_BlueDark
f 3/3/1 4/4/1 2/2/1 1/1/1
f 4/7/3 6/8/4 5/6/3 2/5/2
f 9/11/6 10/12/7 8/10/6 7/9/5
f 12/15/8 3/16/8 1/14/8 11/13/8
f 15/19/9 16/20/9 14/18/9 13/17/9
f 19/23/10 20/24/10 18/22/10 17/21/10
f 13/27/11 14/28/11 4/26/11 3/25/11
f 15/29/8 13/30/8 3/16/8 12/15/8
f 14/33/13 16/34/14 6/32/13 4/31/12
f 23/37/15 24/38/15 22/36/15 21/35/15
f 17/41/16 18/42/16 5/40/16 11/39/16
f 19/43/8 17/44/8 11/13/8 1/14/8
f 18/47/18 20/48/19 2/46/18 5/45/17
f 20/51/11 19/52/11 1/50/11 2/49/11
f 7/55/10 8/56/10 11/54/10 5/53/10
f 9/59/21 7/60/22 5/58/21 6/57/20
f 8/61/8 10/62/8 12/15/8 11/13/8
f 25/65/24 9/66/25 6/64/24 16/63/23
f 10/62/8 26/67/8 15/29/8 12/15/8
f 26/68/9 25/69/9 16/20/9 15/19/9
f 21/72/10 22/73/10 10/71/10 9/70/10
f 23/33/26 21/31/26 9/75/26 25/74/26
f 22/76/8 24/77/8 26/67/8 10/62/8
f 24/78/9 23/79/9 25/69/9 26/68/9
f 29/80/27 30/81/27 28/2/27 27/1/27
f 30/84/11 32/85/11 31/83/11 28/82/11
f 35/88/28 36/89/28 34/87/28 33/86/28
f 38/92/30 29/93/31 27/91/30 37/90/29
f 41/96/9 42/97/9 40/95/9 39/94/9
f 45/100/10 46/101/10 44/99/10 43/98/10
f 39/104/8 40/105/8 30/103/8 29/102/8
f 41/108/33 39/109/34 29/107/33 38/106/32
f 40/110/11 42/111/11 32/85/11 30/84/11
f 49/114/35 50/115/35 48/113/35 47/112/35
f 43/118/36 44/119/36 31/117/36 37/116/36
f 45/122/38 43/123/39 37/121/38 27/120/37
f 44/124/11 46/125/11 28/82/11 31/83/11
f 46/126/8 45/127/8 27/50/8 28/49/8
f 33/130/10 34/131/10 37/129/10 31/128/10
f 35/132/11 33/133/11 31/83/11 32/85/11
f 34/136/41 36/137/42 38/135/41 37/134/40
f 51/138/11 35/132/11 32/85/11 42/111/11
f 36/141/44 52/142/45 41/140/44 38/139/43
f 52/143/9 51/144/9 42/97/9 41/96/9
f 47/147/10 48/148/10 36/146/10 35/145/10
f 49/149/11 47/150/11 35/132/11 51/138/11
f 48/153/47 50/154/48 52/152/47 36/151/46
f 50/155/9 49/156/9 51/144/9 52/143/9

