# Blender 4.0.2
# www.blender.org
mtllib Model_CageGrateHole.mtl
o Model_CageGrateFull.001
v -2.549372 -2.500000 -0.049995
v -2.549372 2.500000 -0.049996
v -2.549372 2.500000 0.050003
v -2.549372 -2.500000 0.050004
v 2.549373 2.500000 -0.050004
v 2.549373 2.500000 0.049995
v 2.549373 -2.500000 -0.050003
v 2.549373 -2.500000 0.049996
v -0.382683 0.444948 0.050000
v -0.195090 0.501854 0.050000
v 0.000000 0.521068 0.049999
v 0.195090 0.501854 0.049999
v 0.555570 0.352538 0.049999
v 0.382683 0.444948 0.049999
v 0.831470 0.076639 0.049998
v 0.923880 -0.861615 0.049998
v 1.000000 -0.478932 0.049998
v 0.980785 -0.674022 0.049998
v 0.980785 -0.283841 0.049998
v 0.923880 -0.096248 0.049998
v 0.707107 0.228175 0.049998
v -1.000000 -0.478932 0.050001
v -0.923880 -0.861615 0.050001
v -0.980785 -0.674022 0.050001
v -0.980785 -0.283841 0.050001
v -0.923880 -0.096248 0.050001
v -0.831470 -1.034502 0.050001
v -0.707107 0.228175 0.050001
v -0.707107 -1.186038 0.050001
v -0.831470 0.076639 0.050001
v -0.555570 -1.310401 0.050001
v -0.195090 -1.459717 0.050000
v 0.000000 -1.478932 0.050000
v -0.382683 -1.402811 0.050000
v 0.555570 -1.310401 0.049999
v 0.382683 -1.402811 0.049999
v 0.707107 -1.186038 0.049999
v 0.831470 -1.034502 0.049998
v 0.195090 -1.459717 0.049999
v -0.555570 0.352538 0.050000
v -0.980785 -0.674022 -0.049998
v -1.000000 -0.478932 -0.049998
v -0.980785 -0.283841 -0.049998
v -0.831470 0.076639 -0.049998
v -0.923880 -0.861615 -0.049998
v -0.923880 -0.096248 -0.049998
v -0.382683 0.444948 -0.049999
v -0.555570 0.352538 -0.049999
v 0.000000 0.521068 -0.050000
v 0.382683 0.444948 -0.050000
v 0.195090 0.501854 -0.050000
v -0.195090 0.501854 -0.049999
v -0.707107 0.228175 -0.049998
v -0.831470 -1.034502 -0.049998
v -0.382683 -1.402811 -0.049999
v -0.555570 -1.310401 -0.049999
v -0.707107 -1.186038 -0.049998
v 0.000000 -1.478932 -0.049999
v 0.382683 -1.402811 -0.050000
v 0.195090 -1.459717 -0.050000
v -0.195090 -1.459717 -0.049999
v 0.831470 -1.034502 -0.050001
v 0.831470 0.076639 -0.050001
v 0.707107 -1.186038 -0.050001
v 0.707107 0.228175 -0.050001
v 1.000000 -0.478932 -0.050001
v 0.980785 -0.283841 -0.050001
v 0.923880 -0.861615 -0.050001
v 0.980785 -0.674022 -0.050001
v 0.923880 -0.096248 -0.050001
v 0.555570 0.352538 -0.050000
v 0.555570 -1.310401 -0.050000
vn -1.0000 -0.0000 -0.0000
vn -0.0000 1.0000 -0.0000
vn 1.0000 -0.0000 -0.0000
vn -0.0000 -1.0000 -0.0000
vn -0.0000 -0.0000 1.0000
vn -0.0000 -0.0000 -1.0000
vn -0.0980 -0.9952 -0.0000
vn 0.0980 -0.9952 -0.0000
vn 0.2903 -0.9569 -0.0000
vn 0.4714 -0.8819 -0.0000
vn 0.6344 -0.7730 -0.0000
vn 0.7730 -0.6344 -0.0000
vn 0.8819 -0.4714 -0.0000
vn 0.9569 -0.2903 -0.0000
vn 0.9952 -0.0980 -0.0000
vn 0.9952 0.0980 -0.0000
vn 0.9569 0.2903 -0.0000
vn 0.8819 0.4714 -0.0000
vn 0.7730 0.6344 -0.0000
vn 0.6344 0.7730 -0.0000
vn 0.4714 0.8819 -0.0000
vn 0.2903 0.9569 -0.0000
vn 0.0980 0.9952 -0.0000
vn -0.0980 0.9952 -0.0000
vn -0.2903 0.9569 -0.0000
vn -0.4714 0.8819 -0.0000
vn -0.6344 0.7730 -0.0000
vn -0.7730 0.6344 -0.0000
vn -0.8819 0.4714 -0.0000
vn -0.9569 0.2903 -0.0000
vn -0.9952 0.0980 -0.0000
vn -0.9952 -0.0980 -0.0000
vn -0.9569 -0.2903 -0.0000
vn -0.8819 -0.4714 -0.0000
vn -0.7730 -0.6344 -0.0000
vn -0.6344 -0.7730 -0.0000
vn -0.4714 -0.8819 -0.0000
vn -0.2903 -0.9569 -0.0000
vt 1.000000 0.000000
vt 1.000000 1.000000
vt 0.000000 1.000000
vt 0.000000 0.000000
vt 0.336926 0.293100
vt 0.663073 0.293100
vt 0.638682 0.262792
vt 0.608962 0.237920
vt 0.575054 0.219438
vt 0.538262 0.208057
vt 0.500000 0.204214
vt 0.461737 0.208057
vt 0.424945 0.219438
vt 0.391038 0.237920
vt 0.361317 0.262792
vt 0.318802 0.327677
vt 0.307642 0.365196
vt 0.303873 0.404214
vt 0.307642 0.443232
vt 0.318802 0.480750
vt 0.336926 0.515328
vt 0.361317 0.545635
vt 0.391038 0.570508
vt 0.424945 0.588989
vt 0.461737 0.600371
vt 0.500000 0.604214
vt 0.538262 0.600371
vt 0.575054 0.588989
vt 0.608962 0.570508
vt 0.638682 0.545635
vt 0.663073 0.515328
vt 0.681197 0.480750
vt 0.692358 0.443232
vt 0.696127 0.404214
vt 0.692358 0.365196
vt 0.681197 0.327677
vt 0.663074 0.293100
vt 0.336927 0.293100
vt 0.318803 0.327677
vt 0.307642 0.365196
vt 0.303873 0.404214
vt 0.307642 0.443232
vt 0.318803 0.480750
vt 0.336927 0.515328
vt 0.361318 0.545635
vt 0.391038 0.570507
vt 0.424946 0.588989
vt 0.461738 0.600371
vt 0.500000 0.604214
vt 0.538262 0.600371
vt 0.575055 0.588989
vt 0.608962 0.570508
vt 0.638683 0.545635
vt 0.663074 0.515328
vt 0.681198 0.480750
vt 0.692358 0.443232
vt 0.696127 0.404214
vt 0.692358 0.365196
vt 0.681198 0.327677
vt 0.638683 0.262792
vt 0.608962 0.237920
vt 0.575055 0.219438
vt 0.538263 0.208057
vt 0.500000 0.204214
vt 0.461738 0.208057
vt 0.424946 0.219438
vt 0.391038 0.237920
vt 0.361318 0.262792
vt 0.968750 0.737500
vt 0.968750 0.762500
vt 1.000000 0.762500
vt 1.000000 0.737500
vt 0.000000 0.737500
vt 0.000000 0.762500
vt 0.031250 0.762500
vt 0.031250 0.737500
vt 0.062500 0.762500
vt 0.062500 0.737500
vt 0.093750 0.762500
vt 0.093750 0.737500
vt 0.125000 0.762500
vt 0.125000 0.737500
vt 0.156250 0.762500
vt 0.156250 0.737500
vt 0.187500 0.762500
vt 0.187500 0.737500
vt 0.218750 0.762500
vt 0.218750 0.737500
vt 0.250000 0.762500
vt 0.250000 0.737501
vt 0.281250 0.762500
vt 0.281250 0.737501
vt 0.312500 0.762500
vt 0.312500 0.737500
vt 0.343750 0.762500
vt 0.343750 0.737500
vt 0.375000 0.762500
vt 0.375000 0.737500
vt 0.406250 0.762500
vt 0.406250 0.737500
vt 0.437500 0.762500
vt 0.437500 0.737500
vt 0.468750 0.762500
vt 0.468750 0.737500
vt 0.500000 0.762500
vt 0.500000 0.737500
vt 0.531250 0.762500
vt 0.531250 0.737500
vt 0.562500 0.762500
vt 0.562500 0.737500
vt 0.593750 0.762500
vt 0.593750 0.737500
vt 0.625000 0.762500
vt 0.625000 0.737500
vt 0.656250 0.762500
vt 0.656250 0.737500
vt 0.687500 0.762500
vt 0.687500 0.737500
vt 0.718750 0.762500
vt 0.718750 0.737500
vt 0.750000 0.762500
vt 0.750000 0.737500
vt 0.781250 0.762500
vt 0.781250 0.737500
vt 0.812500 0.762500
vt 0.812500 0.737500
vt 0.843750 0.762500
vt 0.843750 0.737500
vt 0.875000 0.762500
vt 0.875000 0.737500
vt 0.906250 0.762500
vt 0.906250 0.737500
vt 0.937500 0.762500
vt 0.937500 0.737500
s 0
usemtl MReja.001
f 4/1/1 3/2/1 2/3/1 1/4/1
f 3/1/2 6/2/2 5/3/2 2/4/2
f 6/1/3 8/2/3 7/3/3 5/4/3
f 8/1/4 4/2/4 1/3/4 7/4/4
f 27/5/5 4/4/5 8/1/5 38/6/5 37/7/5 35/8/5 36/9/5 39/10/5 33/11/5 32/12/5 34/13/5 31/14/5 29/15/5
f 8/1/5 6/2/5 3/3/5 4/4/5 27/5/5 23/16/5 24/17/5 22/18/5 25/19/5 26/20/5 30/21/5 28/22/5 40/23/5 9/24/5 10/25/5 11/26/5 12/27/5 14/28/5 13/29/5 21/30/5 15/31/5 20/32/5 19/33/5 17/34/5 18/35/5 16/36/5 38/6/5
f 54/37/6 1/1/6 2/2/6 5/3/6 7/4/6 62/38/6 68/39/6 69/40/6 66/41/6 67/42/6 70/43/6 63/44/6 65/45/6 71/46/6 50/47/6 51/48/6 49/49/6 52/50/6 47/51/6 48/52/6 53/53/6 44/54/6 46/55/6 43/56/6 42/57/6 41/58/6 45/59/6
f 62/38/6 7/4/6 1/1/6 54/37/6 57/60/6 56/61/6 55/62/6 61/63/6 58/64/6 60/65/6 59/66/6 72/67/6 64/68/6
f 51/69/7 12/70/7 11/71/7 49/72/7
f 49/73/8 11/74/8 10/75/8 52/76/8
f 52/76/9 10/75/9 9/77/9 47/78/9
f 47/78/10 9/77/10 40/79/10 48/80/10
f 48/80/11 40/79/11 28/81/11 53/82/11
f 53/82/12 28/81/12 30/83/12 44/84/12
f 44/84/13 30/83/13 26/85/13 46/86/13
f 46/86/14 26/85/14 25/87/14 43/88/14
f 43/88/15 25/87/15 22/89/15 42/90/15
f 42/90/16 22/89/16 24/91/16 41/92/16
f 41/92/17 24/91/17 23/93/17 45/94/17
f 45/94/18 23/93/18 27/95/18 54/96/18
f 54/96/19 27/95/19 29/97/19 57/98/19
f 29/97/20 31/99/20 56/100/20 57/98/20
f 31/99/21 34/101/21 55/102/21 56/100/21
f 34/101/22 32/103/22 61/104/22 55/102/22
f 32/103/23 33/105/23 58/106/23 61/104/23
f 33/105/24 39/107/24 60/108/24 58/106/24
f 39/107/25 36/109/25 59/110/25 60/108/25
f 36/109/26 35/111/26 72/112/26 59/110/26
f 35/111/27 37/113/27 64/114/27 72/112/27
f 37/113/28 38/115/28 62/116/28 64/114/28
f 38/115/29 16/117/29 68/118/29 62/116/29
f 16/117/30 18/119/30 69/120/30 68/118/30
f 18/119/31 17/121/31 66/122/31 69/120/31
f 17/121/32 19/123/32 67/124/32 66/122/32
f 19/123/33 20/125/33 70/126/33 67/124/33
f 20/125/34 15/127/34 63/128/34 70/126/34
f 15/127/35 21/129/35 65/130/35 63/128/35
f 65/130/36 21/129/36 13/131/36 71/132/36
f 71/132/37 13/131/37 14/133/37 50/134/37
f 50/134/38 14/133/38 12/70/38 51/69/38
